{
	"asset":{
		"generator":"Khronos glTF Blender I/O v3.5.30",
		"version":"2.0"
	},
	"extensionsUsed":[
		"KHR_materials_specular",
		"KHR_materials_ior"
	],
	"scene":0,
	"scenes":[
		{
			"name":"Scene",
			"nodes":[
				7
			]
		}
	],
	"nodes":[
		{
			"name":"eye.r",
			"rotation":[
				-0.7010807394981384,
				0.7010807394981384,
				0.09211847186088562,
				0.09211848676204681
			],
			"translation":[
				-0.15402163565158844,
				1.3065520524978638,
				0.14631026983261108
			]
		},
		{
			"children":[
				0
			],
			"name":"frame.r",
			"rotation":[
				-0.5608763098716736,
				0.43060168623924255,
				0.5608763098716736,
				0.43060165643692017
			],
			"scale":[
				1,
				1,
				0.9999999403953552
			],
			"translation":[
				-0.20000000298023224,
				0.5,
				-1.4000000953674316
			]
		},
		{
			"name":"eye.l",
			"rotation":[
				-0.7010807394981384,
				-0.7010807394981384,
				-0.09211847186088562,
				0.09211848676204681
			],
			"translation":[
				0.15402163565158844,
				1.3065520524978638,
				0.14631026983261108
			]
		},
		{
			"children":[
				2
			],
			"name":"frame.l",
			"rotation":[
				-0.5608763098716736,
				-0.43060168623924255,
				-0.5608763098716736,
				0.43060165643692017
			],
			"scale":[
				1,
				1,
				0.9999999403953552
			],
			"translation":[
				0.20000000298023224,
				0.5,
				-1.4000000953674316
			]
		},
		{
			"name":"neutral_bone",
			"rotation":[
				-0.7071067690849304,
				0,
				0,
				0.7071067690849304
			]
		},
		{
			"mesh":0,
			"name":"screws",
			"skin":0
		},
		{
			"mesh":1,
			"name":"screws.001",
			"skin":0
		},
		{
			"children":[
				5,
				6,
				1,
				3,
				4
			],
			"name":"Armature"
		}
	],
	"materials":[
		{
			"alphaMode":"BLEND",
			"doubleSided":true,
			"extensions":{
				"KHR_materials_specular":{
					"specularColorFactor":[
						2.371357614441398,
						2.371357614441398,
						2.371357614441398
					]
				},
				"KHR_materials_ior":{
					"ior":1.4500000476837158
				}
			},
			"name":"Material.007",
			"pbrMetallicRoughness":{
				"baseColorFactor":[
					0,
					0,
					0,
					0.5
				],
				"metallicFactor":0,
				"roughnessFactor":0
			}
		}
	],
	"meshes":[
		{
			"name":"Cylinder.005",
			"primitives":[
				{
					"attributes":{
						"POSITION":0,
						"TEXCOORD_0":1,
						"NORMAL":2,
						"JOINTS_0":3,
						"WEIGHTS_0":4
					},
					"indices":5
				}
			]
		},
		{
			"name":"Cylinder.001",
			"primitives":[
				{
					"attributes":{
						"POSITION":7,
						"TEXCOORD_0":8,
						"NORMAL":9,
						"TANGENT":10,
						"JOINTS_0":11,
						"WEIGHTS_0":12
					},
					"indices":13,
					"material":0
				}
			]
		}
	],
	"skins":[
		{
			"inverseBindMatrices":6,
			"joints":[
				1,
				0,
				3,
				2,
				4
			],
			"name":"Armature"
		}
	],
	"accessors":[
		{
			"bufferView":0,
			"componentType":5126,
			"count":14238,
			"max":[
				3.2828569412231445,
				1.9129106998443604,
				0.007776938378810883
			],
			"min":[
				-3.2828569412231445,
				-1.4964176416397095,
				-2.8070194721221924
			],
			"type":"VEC3"
		},
		{
			"bufferView":1,
			"componentType":5126,
			"count":14238,
			"type":"VEC2"
		},
		{
			"bufferView":2,
			"componentType":5126,
			"count":14238,
			"type":"VEC3"
		},
		{
			"bufferView":3,
			"componentType":5121,
			"count":14238,
			"type":"VEC4"
		},
		{
			"bufferView":4,
			"componentType":5126,
			"count":14238,
			"type":"VEC4"
		},
		{
			"bufferView":5,
			"componentType":5123,
			"count":55224,
			"type":"SCALAR"
		},
		{
			"bufferView":6,
			"componentType":5126,
			"count":5,
			"type":"MAT4"
		},
		{
			"bufferView":7,
			"componentType":5126,
			"count":258,
			"max":[
				2.2241945266723633,
				0.9996840953826904,
				0.35033950209617615
			],
			"min":[
				-2.2241945266723633,
				-0.43238598108291626,
				-0.01788339763879776
			],
			"type":"VEC3"
		},
		{
			"bufferView":8,
			"componentType":5126,
			"count":258,
			"type":"VEC2"
		},
		{
			"bufferView":9,
			"componentType":5126,
			"count":258,
			"type":"VEC3"
		},
		{
			"bufferView":10,
			"componentType":5126,
			"count":258,
			"type":"VEC4"
		},
		{
			"bufferView":11,
			"componentType":5121,
			"count":258,
			"type":"VEC4"
		},
		{
			"bufferView":12,
			"componentType":5126,
			"count":258,
			"type":"VEC4"
		},
		{
			"bufferView":13,
			"componentType":5123,
			"count":1344,
			"type":"SCALAR"
		}
	],
	"bufferViews":[
		{
			"buffer":0,
			"byteLength":170856,
			"byteOffset":0,
			"target":34962
		},
		{
			"buffer":0,
			"byteLength":113904,
			"byteOffset":170856,
			"target":34962
		},
		{
			"buffer":0,
			"byteLength":170856,
			"byteOffset":284760,
			"target":34962
		},
		{
			"buffer":0,
			"byteLength":56952,
			"byteOffset":455616,
			"target":34962
		},
		{
			"buffer":0,
			"byteLength":227808,
			"byteOffset":512568,
			"target":34962
		},
		{
			"buffer":0,
			"byteLength":110448,
			"byteOffset":740376,
			"target":34963
		},
		{
			"buffer":0,
			"byteLength":320,
			"byteOffset":850824
		},
		{
			"buffer":0,
			"byteLength":3096,
			"byteOffset":851144,
			"target":34962
		},
		{
			"buffer":0,
			"byteLength":2064,
			"byteOffset":854240,
			"target":34962
		},
		{
			"buffer":0,
			"byteLength":3096,
			"byteOffset":856304,
			"target":34962
		},
		{
			"buffer":0,
			"byteLength":4128,
			"byteOffset":859400,
			"target":34962
		},
		{
			"buffer":0,
			"byteLength":1032,
			"byteOffset":863528,
			"target":34962
		},
		{
			"buffer":0,
			"byteLength":4128,
			"byteOffset":864560,
			"target":34962
		},
		{
			"buffer":0,
			"byteLength":2688,
			"byteOffset":868688,
			"target":34963
		}
	],
	"buffers":[
		{
			"byteLength":871376,
			"uri":"data:application/octet-stream;base64,"
		}
	]
}
